<?xml version="1.0" encoding="UTF-8"?>
<svg width="20px" height="20px" viewBox="0 0 20 20" version="1.1" xmlns="http://www.w3.org/2000/svg" xmlns:xlink="http://www.w3.org/1999/xlink">
    <!-- Generator: Sketch 54.1 (76490) - https://sketchapp.com -->
    <title>iconmonstr-download-14</title>
    <desc>Created with Sketch.</desc>
    <g id="Page-1" stroke="none" stroke-width="1" fill="none" fill-rule="evenodd">
        <g id="Artboard" transform="translate(-290.000000, -41.000000)" fill="#3B48F6" fill-rule="nonzero">
            <g id="iconmonstr-download-14" transform="translate(290.000000, 41.000000)">
                <path d="M10,0 C4.4775,0 0,4.4775 0,10 C0,15.5225 4.4775,20 10,20 C15.5225,20 20,15.5225 20,10 C20,4.4775 15.5225,0 10,0 Z M10,18.3333333 C5.405,18.3333333 1.66666667,14.595 1.66666667,10 C1.66666667,5.405 5.405,1.66666667 10,1.66666667 C14.595,1.66666667 18.3333333,5.405 18.3333333,10 C18.3333333,14.595 14.595,18.3333333 10,18.3333333 Z M8.33333333,6.66666667 L11.6666667,6.66666667 L11.6666667,7.5 L8.33333333,7.5 L8.33333333,6.66666667 Z M8.33333333,5.83333333 L8.33333333,5 L11.6666667,5 L11.6666667,5.83333333 L8.33333333,5.83333333 Z M11.6666667,10.8333333 L15,10.8333333 L10,15.8333333 L5,10.8333333 L8.33333333,10.8333333 L8.33333333,8.33333333 L11.6666667,8.33333333 L11.6666667,10.8333333 Z" id="Shape"></path>
            </g>
        </g>
    </g>
</svg>