<?xml version="1.0" encoding="UTF-8"?>
<svg width="22px" height="20px" viewBox="0 0 22 20" version="1.1" xmlns="http://www.w3.org/2000/svg" xmlns:xlink="http://www.w3.org/1999/xlink">
    <!-- Generator: Sketch 54.1 (76490) - https://sketchapp.com -->
    <title>iconmonstr-media-control-55</title>
    <desc>Created with Sketch.</desc>
    <g id="Page-1" stroke="none" stroke-width="1" fill="none" fill-rule="evenodd">
        <g id="Artboard" transform="translate(-103.000000, -42.000000)" fill="#3B48F6" fill-rule="nonzero">
            <g id="iconmonstr-media-control-55" transform="translate(103.000000, 42.000000)">
                <path d="M16.3636364,7.27272727 L16.3636364,4.54545455 C15.4545455,4.54545455 13.3563636,4.37454545 12.2672727,6.56 L8.43272727,14.2518182 C7.51,16.1027273 5.62,17.2727273 3.55090909,17.2727273 L-4.4408921e-16,17.2727273 L-4.4408921e-16,15.4545455 L3.55090909,15.4545455 C4.93,15.4545455 6.19,14.6745455 6.80545455,13.44 L10.64,5.74818182 C11.8727273,3.27454545 13.98,2.72727273 16.3636364,2.72727273 L16.3636364,-1.33226763e-15 L21.8181818,3.63636364 L16.3636364,7.27272727 Z M7.76090909,8.47636364 L8.77636364,6.43818182 C7.65363636,4.18454545 6.14090909,2.72727273 3.55090909,2.72727273 L-4.4408921e-16,2.72727273 L-4.4408921e-16,4.54545455 L3.55090909,4.54545455 C6.16181818,4.54545455 6.86363636,6.67545455 7.76090909,8.47636364 L7.76090909,8.47636364 Z M21.8181818,16.3636364 L16.3636364,12.7272727 L16.3636364,15.4545455 C12.9272727,15.4545455 12.71,14.3290909 11.3127273,11.5254545 L10.2963636,13.5627273 C11.2245455,15.4254545 12.2054545,17.2727273 16.3636364,17.2727273 L16.3636364,20 L21.8181818,16.3636364 Z" id="Shape"></path>
            </g>
        </g>
    </g>
</svg>