<?xml version="1.0" encoding="UTF-8"?>
<svg width="12px" height="12px" viewBox="0 0 12 12" version="1.1" xmlns="http://www.w3.org/2000/svg" xmlns:xlink="http://www.w3.org/1999/xlink">
    <!-- Generator: Sketch 54.1 (76490) - https://sketchapp.com -->
    <title>Icon-info</title>
    <desc>Created with Sketch.</desc>
    <g id="Page-1" stroke="none" stroke-width="1" fill="none" fill-rule="evenodd">
        <path d="M6,1 C8.757,1 11,3.243 11,6 C11,8.757 8.757,11 6,11 C3.243,11 1,8.757 1,6 C1,3.243 3.243,1 6,1 Z M6,0 C2.6865,0 0,2.6865 0,6 C0,9.3135 2.6865,12 6,12 C9.3135,12 12,9.3135 12,6 C12,2.6865 9.3135,0 6,0 Z M5.9995,2.875 C6.3445,2.875 6.625,3.155 6.625,3.5 C6.625,3.845 6.3445,4.125 5.9995,4.125 C5.6545,4.125 5.375,3.845 5.375,3.5 C5.375,3.155 5.6545,2.875 5.9995,2.875 Z M7,9 L5,9 L5,8.5 C5.242,8.4105 5.5,8.3995 5.5,8.1325 L5.5,5.899 C5.5,5.632 5.242,5.59 5,5.5005 L5,5.0005 L6.5,5.0005 L6.5,8.133 C6.5,8.4005 6.7585,8.412 7,8.5005 L7,9 Z" id="Icon-info" fill="#333333" fill-rule="nonzero"></path>
    </g>
</svg>